<?xml version="1.0" encoding="utf-8"?>
<!-- Generator: Adobe Illustrator 25.4.1, SVG Export Plug-In . SVG Version: 6.00 Build 0)  -->
<svg version="1.0" id="breadboard" xmlns="http://www.w3.org/2000/svg" xmlns:xlink="http://www.w3.org/1999/xlink" x="0px" y="0px"
	 width="104.4px" height="97.7px" viewBox="0 0 104.4 97.7" enable-background="new 0 0 104.4 97.7" xml:space="preserve">
<rect x="0.4" y="0.4" fill="none" stroke="#FFFFFF" stroke-width="0.75" stroke-miterlimit="10" width="103.6" height="96.9"/>
<path id="outline_00000051362514095392511000000011511593012459496108_" fill="none" d="M2.8,3.4v91.4h29.2V82.5h40v12.3h29.2V3.4
	H2.8z M9,92.5c-2.2,0-3.9-1.7-3.9-3.9s1.7-3.9,3.9-3.9c2.2,0,3.9,1.7,3.9,3.9S11.2,92.5,9,92.5z M9,13.7c-2.2,0-3.9-1.7-3.9-3.9
	S6.9,5.9,9,5.9c2.2,0,3.9,1.7,3.9,3.9S11.2,13.7,9,13.7z M41.2,9.8c-1.1,0-2.1-0.9-2.1-2.1c0-1.2,0.9-2.1,2.1-2.1s2.1,0.9,2.1,2.1
	C43.3,8.9,42.3,9.8,41.2,9.8z M48.4,9.8c-1.1,0-2.1-0.9-2.1-2.1s0.9-2.1,2.1-2.1c1.1,0,2.1,0.9,2.1,2.1S49.6,9.8,48.4,9.8z
	 M55.6,9.8c-1.1,0-2.1-0.9-2.1-2.1c0-1.2,0.9-2.1,2.1-2.1c1.1,0,2.1,0.9,2.1,2.1C57.7,8.9,56.7,9.8,55.6,9.8z M62.8,9.8
	c-1.1,0-2.1-0.9-2.1-2.1c0-1.2,0.9-2.1,2.1-2.1s2.1,0.9,2.1,2.1C64.9,8.9,64,9.8,62.8,9.8z M95.1,92.5c-2.2,0-3.9-1.7-3.9-3.9
	s1.7-3.9,3.9-3.9c2.2,0,3.9,1.7,3.9,3.9S97.3,92.5,95.1,92.5z M95.1,13.7c-2.2,0-3.9-1.7-3.9-3.9s1.7-3.9,3.9-3.9
	c2.2,0,3.9,1.7,3.9,3.9S97.3,13.7,95.1,13.7z"/>
<g id="copper0">
	<path id="mount4" fill="#F7BD13" d="M9,4.1c-3.1,0-5.7,2.5-5.7,5.7s2.5,5.7,5.7,5.7c3.1,0,5.7-2.5,5.7-5.7S12.1,4.1,9,4.1z M9,13.7
		c-2.2,0-3.9-1.7-3.9-3.9S6.9,5.9,9,5.9c2.2,0,3.9,1.7,3.9,3.9S11.2,13.7,9,13.7z"/>
	<path id="mount3" fill="#F7BD13" d="M95.1,4.1c-3.1,0-5.7,2.5-5.7,5.7s2.5,5.7,5.7,5.7c3.1,0,5.7-2.5,5.7-5.7S98.2,4.1,95.1,4.1z
		 M95.1,13.7c-2.2,0-3.9-1.7-3.9-3.9s1.7-3.9,3.9-3.9c2.2,0,3.9,1.7,3.9,3.9S97.3,13.7,95.1,13.7z"/>
	<path id="mount2" fill="#F7BD13" d="M95.1,83c-3.1,0-5.7,2.5-5.7,5.7c0,3.1,2.5,5.7,5.7,5.7c3.1,0,5.7-2.5,5.7-5.7
		C100.8,85.5,98.2,83,95.1,83z M95.1,92.5c-2.2,0-3.9-1.7-3.9-3.9s1.7-3.9,3.9-3.9c2.2,0,3.9,1.7,3.9,3.9S97.3,92.5,95.1,92.5z"/>
	<path id="mount1" fill="#F7BD13" d="M9,83c-3.1,0-5.7,2.5-5.7,5.7c0,3.1,2.5,5.7,5.7,5.7c3.1,0,5.7-2.5,5.7-5.7
		C14.7,85.5,12.1,83,9,83z M9,92.5c-2.2,0-3.9-1.7-3.9-3.9s1.7-3.9,3.9-3.9c2.2,0,3.9,1.7,3.9,3.9S11.2,92.5,9,92.5z"/>
	<circle id="connector4pin" fill="none" stroke="#FFBF00" stroke-width="1.152" cx="55.7" cy="7.7" r="1.6"/>
	<circle id="connector3pin" fill="none" stroke="#FFBF00" stroke-width="1.152" cx="62.9" cy="7.7" r="1.6"/>
	<circle id="connector2pin" fill="none" stroke="#FFBF00" stroke-width="1.152" cx="48.5" cy="7.7" r="1.6"/>
	<circle id="connector1pin" fill="none" stroke="#FFBF00" stroke-width="1.152" cx="41.3" cy="7.7" r="1.6"/>
	<g id="copper1">
	</g>
</g>
</svg>
