<?xml version="1.0" encoding="utf-8"?>
<!-- Generator: Adobe Illustrator 25.4.1, SVG Export Plug-In . SVG Version: 6.00 Build 0)  -->
<svg version="1.0"
	 id="Layer_1" inkscape:version="1.0.1 (3bc2e813f5, 2020-09-07)" xmlns:cc="http://creativecommons.org/ns#" xmlns:dc="http://purl.org/dc/elements/1.1/" xmlns:inkscape="http://www.inkscape.org/namespaces/inkscape" xmlns:rdf="http://www.w3.org/1999/02/22-rdf-syntax-ns#" xmlns:sodipodi="http://sodipodi.sourceforge.net/DTD/sodipodi-0.dtd" xmlns:svg="http://www.w3.org/2000/svg"
	 xmlns="http://www.w3.org/2000/svg" xmlns:xlink="http://www.w3.org/1999/xlink" x="0px" y="0px" width="79.7px" height="110.6px"
	 viewBox="0 0 79.7 110.6" enable-background="new 0 0 79.7 110.6" xml:space="preserve">
<sodipodi:namedview  bordercolor="#666666" borderopacity="1" gridtolerance="10" guidetolerance="10" id="namedview110" inkscape:current-layer="Layer_1" inkscape:cx="39.85" inkscape:cy="55.3" inkscape:pageopacity="0" inkscape:pageshadow="2" inkscape:window-height="1017" inkscape:window-maximized="1" inkscape:window-width="1920" inkscape:window-x="-8" inkscape:window-y="-8" inkscape:zoom="7.6853526" objecttolerance="10" pagecolor="#ffffff" showgrid="false">
	</sodipodi:namedview>
<path id="path65" fill="#274A89" d="M0,0v110.6h79.7V0H0z M6.5,106.8c-1.6,0-2.8-1.3-2.8-2.8c0-1.6,1.3-2.8,2.8-2.8
	c1.6,0,2.8,1.3,2.8,2.8C9.3,105.6,8,106.8,6.5,106.8z M6.5,9.4c-1.6,0-2.8-1.3-2.8-2.8C3.7,5,5,3.8,6.5,3.8C8,3.7,9.3,5,9.3,6.5
	C9.3,8.1,8,9.4,6.5,9.4z M18.3,5.9c-1.1,0-2.1-0.9-2.1-2.1s0.9-2.1,2.1-2.1s2.1,0.9,2.1,2.1S19.4,5.9,18.3,5.9z M25.4,5.9
	c-1.1,0-2.1-0.9-2.1-2.1s0.9-2.1,2.1-2.1c1.1,0,2.1,0.9,2.1,2.1S26.6,5.9,25.4,5.9z M32.7,5.9c-1.1,0-2.1-0.9-2.1-2.1
	s0.9-2.1,2.1-2.1c1.1,0,2.1,0.9,2.1,2.1S33.8,5.9,32.7,5.9z M39.8,5.9c-1.1,0-2.1-0.9-2.1-2.1s0.9-2.1,2.1-2.1s2.1,0.9,2.1,2.1
	C41.9,5,41,5.9,39.8,5.9z M47,5.9c-1.1,0-2.1-0.9-2.1-2.1s0.9-2.1,2.1-2.1c1.1,0,2.1,0.9,2.1,2.1S48.1,5.9,47,5.9z M54.3,5.9
	c-1.1,0-2.1-0.9-2.1-2.1s0.9-2.1,2.1-2.1c1.1,0,2.1,0.9,2.1,2.1C56.4,5,55.5,5.9,54.3,5.9z M61.4,5.9c-1.1,0-2.1-0.9-2.1-2.1
	s0.9-2.1,2.1-2.1c1.2,0,2.1,0.9,2.1,2.1S62.5,5.9,61.4,5.9z M72.8,106.8c-1.6,0-2.8-1.3-2.8-2.8c0-1.6,1.3-2.8,2.8-2.8
	s2.8,1.3,2.8,2.8C75.7,105.6,74.4,106.8,72.8,106.8z M72.8,9.4c-1.6,0-2.8-1.3-2.8-2.8c0-1.6,1.3-2.8,2.8-2.8s2.8,1.3,2.8,2.8
	C75.7,8.1,74.4,9.4,72.8,9.4z"/>
<rect id="rect67" x="2.8" y="13.7" stroke="#3B3D3F" stroke-miterlimit="10" width="74" height="83.2"/>
<rect id="rect69" x="7.7" y="93.2" fill="#3B3D3F" stroke="#000000" stroke-miterlimit="10" width="64.3" height="3.6"/>
<path id="path71" fill="#9A916C" d="M72.8,1.6c-2.7,0-5,2.2-5,5s2.2,5,5,5s5-2.2,5-5S75.6,1.6,72.8,1.6z M72.8,9.4
	c-1.6,0-2.8-1.3-2.8-2.8c0-1.6,1.3-2.8,2.8-2.8s2.8,1.3,2.8,2.8C75.7,8.1,74.4,9.4,72.8,9.4z"/>
<path id="path73" fill="#9A916C" d="M6.5,1.6c-2.7,0-5,2.2-5,5s2.2,5,5,5s5-2.2,5-5S9.2,1.6,6.5,1.6z M6.5,9.4
	c-1.6,0-2.8-1.3-2.8-2.8C3.7,5,5,3.8,6.5,3.8C8,3.7,9.3,5,9.3,6.5C9.3,8.1,8,9.4,6.5,9.4z"/>
<path id="path75" fill="#9A916C" d="M6.5,99.1c-2.7,0-5,2.2-5,5s2.2,5,5,5s5-2.2,5-5S9.2,99.1,6.5,99.1z M6.5,106.8
	c-1.6,0-2.8-1.3-2.8-2.8c0-1.6,1.3-2.8,2.8-2.8c1.6,0,2.8,1.3,2.8,2.8C9.3,105.6,8,106.8,6.5,106.8z"/>
<path id="path77" fill="#9A916C" d="M72.8,99.1c-2.7,0-5,2.2-5,5s2.2,5,5,5s5-2.2,5-5S75.6,99.1,72.8,99.1z M72.8,106.8
	c-1.6,0-2.8-1.3-2.8-2.8c0-1.6,1.3-2.8,2.8-2.8s2.8,1.3,2.8,2.8C75.7,105.6,74.4,106.8,72.8,106.8z"/>
<text id="text79" transform="matrix(1 0 0 1 14.7957 10.5953)" fill="#FFFFFF" font-family="'OCRA'" font-size="3px">GND</text>
<text id="text81" transform="matrix(1 0 0 1 21.996 10.5952)" fill="#FFFFFF" font-family="'OCRA'" font-size="3px">VCC</text>
<text id="text83" transform="matrix(1 0 0 1 29.1952 10.5952)" fill="#FFFFFF" font-family="'OCRA'" font-size="3px">SCK</text>
<text id="text85" transform="matrix(1 0 0 1 36.3976 10.5952)" fill="#FFFFFF" font-family="'OCRA'" font-size="3px">SDA</text>
<text id="text87" transform="matrix(1 0 0 1 43.5977 10.5952)" fill="#FFFFFF" font-family="'OCRA'" font-size="3px">RES</text>
<text id="text89" transform="matrix(1 0 0 1 51.8799 10.5952)" fill="#FFFFFF" font-family="'OCRA'" font-size="3px">DC</text>
<text id="text91" transform="matrix(1 0 0 1 57.9976 10.5952)" fill="#FFFFFF" font-family="'OCRA'" font-size="3px">BLK</text>
<text id="text93" transform="matrix(1 0 0 1 25.9326 103.9492)" fill="#FFFFFF" font-family="'OCRA'" font-size="3.5px">240*240 IPS</text>
<text id="text95" transform="matrix(1 0 0 1 7.323 23.1621)" fill="#FFFFFF" font-family="'DroidSans'" font-size="6px">1.3 inch</text>
<text id="text97" transform="matrix(1 0 0 1 7.3232 31.5621)" enable-background="new    "><tspan x="0" y="0" fill="#FFFFFF" font-family="'DroidSans'" font-size="6px">TFT </tspan><tspan x="10.7" y="0" fill="#FFFFFF" font-family="'DroidSans'" font-size="6px">L</tspan><tspan x="13.6" y="0" fill="#FFFFFF" font-family="'DroidSans'" font-size="6px">CD</tspan></text>
<text id="text99" transform="matrix(1 0 0 1 7.3232 39.9621)" fill="#FFFFFF" font-family="'DroidSans'" font-size="6px">240*240</text>
<g>
	<circle id="connector4pin" fill="none" stroke="#9A916C" stroke-width="1.152" cx="32.6" cy="3.8" r="1.6"/>
	<circle id="connector3pin" fill="none" stroke="#9A916C" stroke-width="1.152" cx="39.8" cy="3.8" r="1.6"/>
	<circle id="connector2pin" fill="none" stroke="#9A916C" stroke-width="1.152" cx="25.5" cy="3.8" r="1.6"/>
	<circle id="connector1pin" fill="none" stroke="#9A916C" stroke-width="1.152" cx="18.3" cy="3.8" r="1.6"/>
	
		<circle id="connector4pin_00000011725277398890307210000014807606726692448701_" fill="none" stroke="#9A916C" stroke-width="1.152" cx="54.1" cy="3.8" r="1.6"/>
	
		<circle id="connector3pin_00000039823609120618838990000001943900240979591050_" fill="none" stroke="#9A916C" stroke-width="1.152" cx="61.3" cy="3.8" r="1.6"/>
	
		<circle id="connector2pin_00000031177953964925850870000015804479986350618527_" fill="none" stroke="#9A916C" stroke-width="1.152" cx="47" cy="3.8" r="1.6"/>
</g>
</svg>
