<?xml version="1.0" encoding="utf-8"?>
<!-- Generator: Adobe Illustrator 25.4.1, SVG Export Plug-In . SVG Version: 6.00 Build 0)  -->
<svg version="1.2" baseProfile="tiny" id="Layer_1" xmlns="http://www.w3.org/2000/svg" xmlns:xlink="http://www.w3.org/1999/xlink"
	 x="0px" y="0px" width="51.2px" height="58.5px" viewBox="0 0 51.2 58.5" overflow="visible" xml:space="preserve">
<rect x="-28.3" y="-28.4" display="none" fill="#F2F2F2" width="122.1" height="122.1"/>
<rect id="part_symbol" x="7.5" y="0.5" fill="#FFFFFF" stroke="#000000" stroke-width="0.9002" stroke-linecap="round" width="43.2" height="57.6"/>
<g>
	<g>
		
			<line fill="none" stroke="#555555" stroke-width="0.7" stroke-linecap="round" stroke-linejoin="round" x1="0.3" y1="7.6" x2="7.5" y2="7.7"/>
	</g>
	<text transform="matrix(1 0 0 1 3.2598 6.2004)" fill="#555555" font-family="'DroidSans'" font-size="3px">7</text>
	<text transform="matrix(1 0 0 1 9.5684 8.8481)" fill="#555555" font-family="'DroidSans'" font-size="4.5px">BKL</text>
</g>
<g>
	<g>
		
			<line fill="none" stroke="#555555" stroke-width="0.7" stroke-linecap="round" stroke-linejoin="round" x1="0.3" y1="53.4" x2="7.5" y2="53.4"/>
	</g>
	<text transform="matrix(1 0 0 1 3.0899 52.2449)" fill="#555555" font-family="'DroidSans'" font-size="3px">1</text>
	<text transform="matrix(1 0 0 1 9.5685 54.5719)" fill="#555555" font-family="'DroidSans'" font-size="4.5px">GND</text>
</g>
<g>
	
		<line fill="none" stroke="#555555" stroke-width="0.7" stroke-linecap="round" stroke-linejoin="round" x1="0.3" y1="14.9" x2="7.5" y2="14.9"/>
	<text transform="matrix(1 0 0 1 3.1242 13.3106)" fill="#555555" font-family="'DroidSans'" font-size="3px">6</text>
	<text transform="matrix(1 0 0 1 9.569 16.0503)" fill="#555555" font-family="'DroidSans'" font-size="4.5px">DC</text>
</g>
<g>
	
		<line fill="none" stroke="#555555" stroke-width="0.7" stroke-linecap="round" stroke-linejoin="round" x1="0.3" y1="22.1" x2="7.5" y2="22.1"/>
	<text transform="matrix(1 0 0 1 3.1242 20.4356)" fill="#555555" font-family="'DroidSans'" font-size="3px">5</text>
	<text transform="matrix(1 0 0 1 9.569 23.2505)" fill="#555555" font-family="'DroidSans'" font-size="4.5px">RES</text>
</g>
<line fill="none" stroke="#555555" stroke-width="0.7" stroke-linecap="round" stroke-linejoin="round" x1="0.3" y1="29.3" x2="7.5" y2="29.3"/>
<text transform="matrix(1 0 0 1 3.124 27.9356)" fill="#555555" font-family="'DroidSans'" font-size="3px">4</text>
<text transform="matrix(1 0 0 1 9.569 30.4505)" fill="#555555" font-family="'DroidSans'" font-size="4.5px">S</text>
<text transform="matrix(1 0 0 1 11.9049 30.4505)" fill="#555555" font-family="'DroidSans'" font-size="4.5px">D</text>
<text transform="matrix(1 0 0 1 14.9391 30.4505)" fill="#555555" font-family="'DroidSans'" font-size="4.5px">A</text>
<g>
	
		<line fill="none" stroke="#555555" stroke-width="0.7" stroke-linecap="round" stroke-linejoin="round" x1="0.3" y1="36.5" x2="7.5" y2="36.5"/>
	<text transform="matrix(1 0 0 1 3.1242 35.0611)" fill="#555555" font-family="'DroidSans'" font-size="3px">3</text>
	<text transform="matrix(1 0 0 1 9.569 37.6508)" fill="#555555" font-family="'DroidSans'" font-size="4.5px">SCK</text>
</g>
<g>
	<g>
		
			<line fill="none" stroke="#555555" stroke-width="0.7" stroke-linecap="round" stroke-linejoin="round" x1="0.3" y1="44.3" x2="7.5" y2="44.3"/>
	</g>
	<text transform="matrix(1 0 0 1 3.0899 43.0503)" fill="#555555" font-family="'DroidSans'" font-size="3px">2</text>
	<text transform="matrix(1 0 0 1 9.5685 45.4504)" fill="#555555" font-family="'DroidSans'" font-size="4.5px">V</text>
	<text transform="matrix(1 0 0 1 12.0338 45.4504)" fill="#555555" font-family="'DroidSans'" font-size="4.5px">C</text>
	<text transform="matrix(1 0 0 1 14.6574 45.4504)" fill="#555555" font-family="'DroidSans'" font-size="4.5px">C</text>
</g>
<text transform="matrix(1 0 0 1 24.1608 23.2364)" font-family="'DroidSans'" font-size="5px">1</text>
<text transform="matrix(1 0 0 1 26.9147 23.2364)" font-family="'DroidSans'" font-size="5px">.</text>
<text transform="matrix(1 0 0 1 28.255 23.2364)" font-family="'DroidSans'" font-size="5px">3</text>
<text transform="matrix(1 0 0 1 31.0089 23.2364)" font-family="'DroidSans'" font-size="5px"> </text>
<text transform="matrix(1 0 0 1 32.3078 23.2364)" font-family="'DroidSans'" font-size="5px">i</text>
<text transform="matrix(1 0 0 1 33.6017 23.2364)" font-family="'DroidSans'" font-size="5px">n</text>
<text transform="matrix(1 0 0 1 36.546 23.2364)" font-family="'DroidSans'" font-size="5px">c</text>
<text transform="matrix(1 0 0 1 38.8605 23.2364)" font-family="'DroidSans'" font-size="5px">h</text>
<text transform="matrix(1 0 0 1 24.089 29.2364)" font-family="'DroidSans'" font-size="5px">T</text>
<text transform="matrix(1 0 0 1 26.6842 29.2364)" font-family="'DroidSans'" font-size="5px">F</text>
<text transform="matrix(1 0 0 1 29.1403 29.2364)" font-family="'DroidSans'" font-size="5px">T</text>
<text transform="matrix(1 0 0 1 31.7355 29.2364)" font-family="'DroidSans'" font-size="5px"> </text>
<text transform="matrix(1 0 0 1 33.0343 29.2364)" font-family="'DroidSans'" font-size="5px">L</text>
<text transform="matrix(1 0 0 1 35.4416 29.2364)" font-family="'DroidSans'" font-size="5px">C</text>
<text transform="matrix(1 0 0 1 38.4567 29.2364)" font-family="'DroidSans'" font-size="5px">D</text>
<text transform="matrix(1 0 0 1 23.3444 35.2364)" font-family="'DroidSans'" font-size="5px">2</text>
<text transform="matrix(1 0 0 1 26.0983 35.2364)" font-family="'DroidSans'" font-size="5px">4</text>
<text transform="matrix(1 0 0 1 28.8522 35.2364)" font-family="'DroidSans'" font-size="5px">0</text>
<text transform="matrix(1 0 0 1 31.6061 35.2364)" font-family="'DroidSans'" font-size="5px">*</text>
<text transform="matrix(1 0 0 1 34.36 35.2364)" font-family="'DroidSans'" font-size="5px">2</text>
<text transform="matrix(1 0 0 1 37.1139 35.2364)" font-family="'DroidSans'" font-size="5px">4</text>
<text transform="matrix(1 0 0 1 39.8678 35.2364)" font-family="'DroidSans'" font-size="5px">0</text>
</svg>
