<?xml version="1.0" encoding="utf-8"?>
<!-- Generator: Adobe Illustrator 25.4.1, SVG Export Plug-In . SVG Version: 6.00 Build 0)  -->
<svg version="1.2" baseProfile="tiny" xmlns="http://www.w3.org/2000/svg" xmlns:xlink="http://www.w3.org/1999/xlink" x="0px"
	 y="0px" width="79.7px" height="110.6px" viewBox="0 0 79.7 110.6" overflow="visible" xml:space="preserve">
<g id="silkscreen">
	<rect fill="none" stroke="#FFFFFF" stroke-miterlimit="10" width="79.7" height="110.6"/>
</g>
<g id="copper0" inkscape:version="1.0.1 (3bc2e813f5, 2020-09-07)" xmlns:cc="http://creativecommons.org/ns#" xmlns:dc="http://purl.org/dc/elements/1.1/" xmlns:inkscape="http://www.inkscape.org/namespaces/inkscape" xmlns:rdf="http://www.w3.org/1999/02/22-rdf-syntax-ns#" xmlns:sodipodi="http://sodipodi.sourceforge.net/DTD/sodipodi-0.dtd" xmlns:svg="http://www.w3.org/2000/svg">
	<path id="mount4" fill="#F7BD13" d="M72.8,1.6c-2.7,0-5,2.2-5,5s2.2,5,5,5s5-2.2,5-5S75.6,1.6,72.8,1.6z M72.8,9.4
		c-1.6,0-2.8-1.3-2.8-2.8c0-1.6,1.3-2.8,2.8-2.8s2.8,1.3,2.8,2.8C75.7,8.1,74.4,9.4,72.8,9.4z"/>
	<path id="mount3" fill="#F7BD13" d="M6.5,1.6c-2.7,0-5,2.2-5,5s2.2,5,5,5s5-2.2,5-5S9.2,1.6,6.5,1.6z M6.5,9.4
		c-1.6,0-2.8-1.3-2.8-2.8C3.7,5,5,3.8,6.5,3.8C8,3.7,9.3,5,9.3,6.5C9.3,8.1,8,9.4,6.5,9.4z"/>
	<path id="mount2" fill="#F7BD13" d="M6.5,99.1c-2.7,0-5,2.2-5,5s2.2,5,5,5s5-2.2,5-5S9.2,99.1,6.5,99.1z M6.5,106.8
		c-1.6,0-2.8-1.3-2.8-2.8c0-1.6,1.3-2.8,2.8-2.8c1.6,0,2.8,1.3,2.8,2.8C9.3,105.6,8,106.8,6.5,106.8z"/>
	<path id="mount1" fill="#F7BD13" d="M72.8,99.1c-2.7,0-5,2.2-5,5s2.2,5,5,5s5-2.2,5-5S75.6,99.1,72.8,99.1z M72.8,106.8
		c-1.6,0-2.8-1.3-2.8-2.8c0-1.6,1.3-2.8,2.8-2.8s2.8,1.3,2.8,2.8C75.7,105.6,74.4,106.8,72.8,106.8z"/>
	<circle id="connector7pin" fill="none" stroke="#F7BD13" stroke-width="1.152" cx="61.2" cy="3.8" r="1.6"/>
	<circle id="connector6pin" fill="none" stroke="#F7BD13" stroke-width="1.152" cx="54" cy="3.8" r="1.6"/>
	<circle id="connector5pin" fill="none" stroke="#F7BD13" stroke-width="1.152" cx="46.9" cy="3.8" r="1.6"/>
	<circle id="connector4pin" fill="none" stroke="#F7BD13" stroke-width="1.152" cx="39.7" cy="3.8" r="1.6"/>
	
		<circle id="connector3pin_00000081634437921753151420000006754337985585152661_" fill="none" stroke="#F7BD13" stroke-width="1.152" cx="32.5" cy="3.8" r="1.6"/>
	<circle id="connector2pin" fill="none" stroke="#F7BD13" stroke-width="1.152" cx="25.4" cy="3.8" r="1.6"/>
	<circle id="connector1pin" fill="none" stroke="#F7BD13" stroke-width="1.152" cx="18.2" cy="3.8" r="1.6"/>
</g>
</svg>
